<?xml version="1.0" encoding="utf-8" standalone="no"?>
<svg xmlns:dc="http://purl.org/dc/elements/1.1/" xmlns:cc="http://creativecommons.org/ns#" xmlns:rdf="http://www.w3.org/1999/02/22-rdf-syntax-ns#" xmlns:svg="http://www.w3.org/2000/svg" xmlns="http://www.w3.org/2000/svg" xmlns:xlink="http://www.w3.org/1999/xlink" xmlns:sodipodi="http://sodipodi.sourceforge.net/DTD/sodipodi-0.dtd" xmlns:inkscape="http://www.inkscape.org/namespaces/inkscape" version="1.1" id="svg73" width="128" height="128" viewBox="0 0 128 128" inkscape:version="0.92.4 (unknown)">
  <metadata id="metadata79">
    
  </metadata>
  <defs id="defs77">
    <radialGradient r="13.884521" fy="15.07069" fx="15.700563" cy="15.07069" cx="15.700563" gradientTransform="matrix(0.5139214,0.9532276,-0.9143078,0.4929386,19.917341,-11.499809)" gradientUnits="userSpaceOnUse" id="radialGradient3292" xlink:href="#linearGradient2225"/>
    <linearGradient id="linearGradient2225">
      <stop id="stop2227" offset="0" style="stop-color:#ffffff;stop-opacity:0.63529414;"/>
      <stop style="stop-color:#ffffff;stop-opacity:0.20792079;" offset="0.5" id="stop2235"/>
      <stop id="stop2229" offset="1" style="stop-color:#424289;stop-opacity:0.07450981;"/>
    </linearGradient>
    <linearGradient id="linearGradient3377">
      <stop style="stop-color:#c98cbb;stop-opacity:1;" offset="0" id="stop3379"/>
      <stop style="stop-color:#a9b7da;stop-opacity:1" offset="1" id="stop3381"/>
    </linearGradient>
    <linearGradient id="linearGradient3279">
      <stop style="stop-color:#ffffff;stop-opacity:0.50196081;" offset="0" id="stop3281"/>
      <stop style="stop-color:#ffffff;stop-opacity:0;" offset="1" id="stop3283"/>
    </linearGradient>
    <linearGradient id="linearGradient3269">
      <stop id="stop3271" offset="0" style="stop-color:#ffffff;stop-opacity:0;"/>
      <stop id="stop3273" offset="1" style="stop-color:#c98cbb;stop-opacity:0;"/>
    </linearGradient>
    <linearGradient id="linearGradient3261">
      <stop style="stop-color:#04034e;stop-opacity:1;" offset="0" id="stop3263"/>
      <stop style="stop-color:#c98cbb;stop-opacity:1" offset="1" id="stop3265"/>
    </linearGradient>
    <linearGradient id="linearGradient3249">
      <stop id="stop3251" offset="0" style="stop-color:#04034e;stop-opacity:1;"/>
      <stop id="stop3253" offset="1" style="stop-color:#7575b9;stop-opacity:1"/>
    </linearGradient>
    <linearGradient y2="30" x2="37.32143" y1="63.92857" x1="68.214287" gradientUnits="userSpaceOnUse" id="linearGradient3484" xlink:href="#linearGradient3249"/>
    <linearGradient gradientTransform="translate(-47.509484,-22.196517)" y2="46.775925" x2="95.397049" y1="47.093262" x1="50.381359" gradientUnits="userSpaceOnUse" id="linearGradient2198" xlink:href="#linearGradient3377"/>
    <linearGradient gradientTransform="translate(-4.7922134e-4,4.7922134e-4)" y2="46.964287" x2="30.033598" y1="46.964287" x1="104.63487" gradientUnits="userSpaceOnUse" id="linearGradient2223" xlink:href="#linearGradient3261"/>
    <radialGradient gradientTransform="matrix(0.442493,0.8207414,-0.7872309,0.4244266,20.759491,-3.0796524)" gradientUnits="userSpaceOnUse" r="13.884521" fy="15.07069" fx="15.700563" cy="15.07069" cx="15.700563" id="radialGradient3212" xlink:href="#linearGradient2225"/>
    <radialGradient r="13.884521" fy="15.07069" fx="15.700563" cy="15.07069" cx="15.700563" gradientTransform="matrix(0.442493,0.8207414,-0.7872309,0.4244266,20.759491,-3.0796524)" gradientUnits="userSpaceOnUse" id="radialGradient3303" xlink:href="#linearGradient2225"/>
    <linearGradient xlink:href="#linearGradient3377" id="linearGradient352" gradientUnits="userSpaceOnUse" gradientTransform="translate(-47.509484,-22.196517)" x1="50.381359" y1="47.093262" x2="95.397049" y2="46.775925"/>
    <linearGradient xlink:href="#linearGradient3377" id="linearGradient354" gradientUnits="userSpaceOnUse" gradientTransform="translate(-47.509484,-22.196517)" x1="50.381359" y1="47.093262" x2="95.397049" y2="46.775925"/>
    <linearGradient xlink:href="#linearGradient3377" id="linearGradient356" gradientUnits="userSpaceOnUse" gradientTransform="translate(-47.509484,-22.196517)" x1="50.381359" y1="47.093262" x2="95.397049" y2="46.775925"/>
  </defs>
  
  <path style="fill:#000000" d="m 78.16253,120.78243 c 0.392052,-0.63435 2.284207,-1.80993 4.204789,-2.6124 l 3.491967,-1.45904 -0.598715,-13.18893 C 84.931278,96.26815 84.382274,88.41625 84.040562,86.073395 82.973006,78.753975 83.735363,77.659864 93.484691,72.519468 105.59574,66.13384 106.03466,65.452293 99.4249,63.295696 c -2.911538,-0.94996 -5.817881,-2.140952 -6.458542,-2.646649 -0.774154,-0.611068 -1.277252,-6.352321 -1.5,-17.117683 -0.376052,-18.174471 -1.627512,-22.265704 -7.388,-24.152602 -4.058146,-1.329281 -4.195405,-1.525332 -2.126875,-3.037878 1.275485,-0.932658 2.719795,-1.069849 4.845346,-0.460249 7.521426,2.157116 9.001876,6.159664 9.747362,26.352991 l 0.587006,15.900495 5.337823,1.737328 c 2.93581,0.955531 5.78637,2.185873 6.33459,2.734095 1.29077,1.290766 -3.41799,4.835319 -12.825439,9.654442 -8.028434,4.112702 -9.006016,5.811122 -7.363826,12.793684 1.352634,5.751376 2.469532,24.8397 1.645524,28.12281 -0.715247,2.84977 -2.981474,4.65798 -8.969416,7.15665 -2.334732,0.97424 -3.561236,1.15042 -3.127923,0.4493 z m -16.542293,-4.1993 c -1.08986,-1.7875 -1.983246,-3.57889 -1.985302,-3.98087 -0.0021,-0.40198 -2.141238,-0.46072 -4.753738,-0.13054 -4.466846,0.56455 -4.630777,0.50569 -2.75,-0.98732 1.1,-0.87322 3.070014,-1.60197 4.377808,-1.61947 2.233503,-0.0299 2.336895,-0.28973 1.703657,-4.2818 -0.370784,-2.3375 -1.268782,-4.84941 -1.995552,-5.58203 -1.098538,-1.107372 -1.662035,-0.770059 -3.341102,2 -1.110836,1.83262 -2.754787,5.90875 -3.653226,9.05807 -1.396304,4.8945 -3.594305,7.77396 -5.93417,7.77396 -1.172821,0 3.512224,-12.63745 6.035306,-16.27964 3.063814,-4.42277 7.827381,-7.841743 9.846291,-7.067014 1.480453,0.568103 3.073809,4.342358 3.945825,9.346654 0.335438,1.925 1.579445,5.66728 2.76446,8.31618 1.842146,4.11781 1.944033,4.94937 0.702638,5.73469 -2.272102,1.43735 -2.845837,1.17136 -4.962895,-2.30087 z m -39.98904,-1.10333 c -2.475,-1.26334 -5.055866,-3.38816 -5.735258,-4.72183 -2.502912,-4.91328 -0.833856,-24.311223 2.477141,-28.789586 l 2.141345,-2.896325 -2.191614,-2.019472 C 17.117423,75.941877 13.009143,73.721957 9.193299,72.11943 5.3774553,70.516903 2.1137823,68.780886 1.9406913,68.261614 c -0.612774,-1.838321 4.130442,-3.671573 11.1150617,-4.295968 6.997455,-0.625542 7.0886,-0.671093 8.269002,-4.132514 0.656457,-1.925 1.218957,-6.786168 1.25,-10.802595 0.07877,-10.191216 2.562919,-20.431155 5.72313,-23.591366 2.260495,-2.260495 11.752645,-6.606039 14.429842,-6.606039 2.573938,0 -0.644495,2.017381 -5.444662,3.412827 -3.986334,1.158859 -5.614061,2.208779 -6.525451,4.209062 -2.095231,4.598533 -4.125817,16.216452 -4.141159,23.693487 -0.0081,3.951543 -0.579148,8.300098 -1.268979,9.663455 -1.651083,3.263143 -8.323263,6.969158 -12.716279,7.063166 -3.48569,0.07459 -3.475827,0.08689 2.412217,3.008267 6.130123,3.041484 9.587783,5.618277 9.587783,7.145216 0,0.487028 -1.010397,2.252139 -2.245326,3.922471 -1.949293,2.63656 -2.292595,4.52604 -2.603853,14.331197 -0.220802,6.95564 0.06125,12.07858 0.734229,13.33606 0.601016,1.12301 3.339407,3.0572 6.085312,4.29819 3.93211,1.77709 4.758081,2.53888 3.888652,3.58648 -1.551234,1.86912 -3.672723,1.62409 -8.859014,-1.02321 z M 64.615884,86.618316 c -0.01884,-6.503778 -1.128107,-8.740971 -3.399388,-6.855976 -1.078485,0.895063 -2.973107,1.089765 -6.076215,0.624425 -4.501032,-0.674971 -4.509084,-0.670775 -4.509084,2.34991 0,2.002634 -0.676421,3.388099 -2,4.096457 -1.911464,1.022984 -2,0.76049 -2,-5.929632 0,-5.897239 0.304718,-7.163081 1.934259,-8.035184 2.844573,-1.52237 2.993882,-1.36722 2.372028,2.464816 -0.447306,2.756423 -0.234037,3.5 1.003854,3.5 0.864504,0 1.863283,-0.471589 2.21951,-1.047976 0.40159,-0.649786 2.365081,-0.790437 5.167611,-0.370172 4.41275,0.661733 4.502763,0.621375 3.796149,-1.702024 -0.398077,-1.308905 -0.784444,-2.759204 -0.858594,-3.222886 -0.190902,-1.193773 3.130953,-3.224505 3.944244,-2.411214 1.065441,1.065441 2.329708,8.759934 2.377388,14.469088 0.03523,4.218102 -0.338712,5.419397 -1.956449,6.285184 -1.882022,1.007228 -2.000903,0.758601 -2.015313,-4.214816 z M 45.087673,61.583132 c 0.734293,-2.3375 2.127466,-6.928442 3.09594,-10.202093 1.622199,-5.483389 5.101874,-10.547907 7.247142,-10.547907 2.17175,0 4.420046,4.369823 6.423302,12.484429 2.137304,8.657599 2.139887,8.777262 0.21992,10.190079 -1.816178,1.336445 -2.023743,1.149261 -3.185199,-2.872451 -1.140645,-3.949649 -1.528187,-4.316604 -4.730956,-4.479641 -3.259831,-0.165943 -3.55757,0.07879 -4.541545,3.732993 -0.884126,3.283393 -3.283013,5.944591 -5.358641,5.944591 -0.277773,0 0.09574,-1.9125 0.830037,-4.25 z m 11.543524,-9.6849 c 0,-0.514196 -0.505187,-2.201696 -1.122638,-3.75 l -1.122638,-2.8151 -1.28065,3 c -0.704357,1.65 -1.072612,3.3375 -0.818345,3.75 0.666679,1.081557 4.344271,0.925032 4.344271,-0.1849 z m -8.006608,-16.3151 c -0.01072,-8.513157 2.145293,-21.117568 3.848669,-22.5 2.588396,-2.1007 3.152896,-1.441659 2.900406,3.386153 -0.234154,4.477197 -0.122787,4.677294 3.248129,5.836054 3.488135,1.199054 3.488944,1.200783 1.147767,2.453743 -1.288555,0.689614 -3.149128,1.042992 -4.134605,0.785284 -1.569649,-0.410473 -1.840373,0.391474 -2.183775,6.468831 -0.365894,6.475431 -1.417542,8.750467 -4.069983,8.804622 -0.4125,0.0084 -0.752974,-2.347187 -0.756608,-5.234687 z m 11.006608,2.657084 c 0,-0.326104 0.920876,-5.163604 2.046391,-10.75 1.851602,-9.190269 3.497491,-12.657084 6.009017,-12.657084 1.202893,0 -3.791815,22.218407 -5.194491,23.10712 -1.591293,1.008217 -2.860917,1.141335 -2.860917,0.299964 z" id="path83"/>
  <g id="g285" transform="matrix(0.63599254,0,0,0.63599254,96.371519,2.7607905)">
    <g id="layer1" inkscape:label="Camada 1">
      <path sodipodi:type="arc" style="fill:url(#linearGradient3484);fill-opacity:1;stroke:#000000;stroke-width:1;stroke-linejoin:round;stroke-miterlimit:4;stroke-dasharray:none;stroke-opacity:0" id="path3257" sodipodi:cx="52.232143" sodipodi:cy="46.964287" sodipodi:rx="23.125" sodipodi:ry="22.857143" d="M 75.357143,46.964287 A 23.125,22.857143 0 0 1 52.266223,69.821405 23.125,22.857143 0 0 1 29.107244,47.031657 23.125,22.857143 0 0 1 52.129904,24.107367 23.125,22.857143 0 0 1 75.356742,46.829547" sodipodi:start="0" sodipodi:end="6.2772904" sodipodi:open="true" transform="matrix(0.9311018,0,0,0.9420131,-23.732315,-20.240973)"/>
      <path id="path2274" d="m 22.999521,2.4692292 c -11.885514,0 -21.5312502,9.6457358 -21.5312502,21.5312498 0,11.885514 9.6457352,21.531248 21.5312502,21.53125 0.265388,0 0.518177,-0.02171 0.78125,-0.03125 -11.371502,-0.577042 -20.4062502,-9.985908 -20.4062502,-21.5 0,-11.514091 9.0347482,-20.9229588 20.4062502,-21.4999998 -0.262097,-0.00946 -0.516858,-0.03125 -0.78125,-0.03125 z" style="fill:url(#linearGradient2223);fill-opacity:1;stroke:#000000;stroke-width:0.93654156;stroke-linejoin:round;stroke-miterlimit:4;stroke-dasharray:none;stroke-opacity:0"/>
      <rect y="19.090153" x="3.6202538" height="1.0065774" width="43.775467" id="rect3343" style="fill:url(#linearGradient352);fill-opacity:1;stroke:#000000;stroke-width:1.00357521;stroke-linejoin:round;stroke-miterlimit:4;stroke-dasharray:none;stroke-opacity:0"/>
      <rect y="22.091316" x="3.0040619" height="1.0020295" width="44.373596" id="rect3345" style="fill:url(#linearGradient354);fill-opacity:1;stroke:#000000;stroke-width:1.00812304;stroke-linejoin:round;stroke-miterlimit:4;stroke-dasharray:none;stroke-opacity:0"/>
      <rect y="25.082462" x="3.2925332" height="1.0040441" width="44.107754" id="rect3347" style="fill:url(#linearGradient356);fill-opacity:1;stroke:#000000;stroke-width:1.00610852;stroke-linejoin:round;stroke-miterlimit:4;stroke-dasharray:none;stroke-opacity:0"/>
      <rect y="28.080254" x="3.5658333" height="1.0062386" width="43.819771" id="rect3349" style="fill:url(#linearGradient2198);fill-opacity:1;stroke:#000000;stroke-width:1.003914;stroke-linejoin:round;stroke-miterlimit:4;stroke-dasharray:none;stroke-opacity:0"/>
      <path id="path3301" d="m 24.844792,2.4871817 c -11.694349,0 -21.1965798,9.3471613 -21.4999996,20.9687503 2.752341,2.469641 6.3575865,4 10.3437506,4 8.580886,0 15.562498,-6.981612 15.562499,-15.5625 v -0.09375 c -0.02055,-3.4851184 -1.202201,-6.6990063 -3.15625,-9.2812503 -0.416518,-0.024023 -0.827496,-0.03125 -1.25,-0.03125 z" style="opacity:1;fill:url(#radialGradient3292);fill-opacity:1;stroke:#000000;stroke-width:1.16142261;stroke-linejoin:round;stroke-miterlimit:4;stroke-dasharray:none;stroke-opacity:0"/>
    </g>
    <g inkscape:label="a" id="layer2"/>
  </g>
</svg>
